<svg xmlns="http://www.w3.org/2000/svg" viewBox="0 0 24 24" id="left">
  <defs>
    <linearGradient id="a" x1="19.53" x2="4.47" y1="17.03" y2="1.97" gradientUnits="userSpaceOnUse">
      <stop offset="0" stop-color="#eb595a"></stop>
      <stop offset="1" stop-color="#f18875"></stop>
    </linearGradient>
    <linearGradient id="b" x1="13.135" x2="2.338" y1="19.899" y2="9.101" gradientUnits="userSpaceOnUse">
      <stop offset="0" stop-color="#629ad3"></stop>
      <stop offset="1" stop-color="#79aed4"></stop>
    </linearGradient>
  </defs>
  <g>
    <path fill="#fff" d="M3,21.75a2.25,2.25,0,0,1,0-4.5h9.474a2.25,2.25,0,0,1,0,4.5Zm0-5a2.25,2.25,0,0,1,0-4.5H21a2.25,2.25,0,0,1,0,4.5Zm0-5a2.25,2.25,0,0,1,0-4.5h9.474a2.25,2.25,0,0,1,0,4.5Zm0-5a2.25,2.25,0,0,1,0-4.5H21a2.25,2.25,0,0,1,0,4.5Z"></path>
    <path fill="url(#a)" d="M2.25,4.5A.75.75,0,0,1,3,3.75H21a.75.75,0,0,1,0,1.5H3A.75.75,0,0,1,2.25,4.5ZM21,13.75H3a.75.75,0,0,0,0,1.5H21a.75.75,0,0,0,0-1.5Z"></path>
    <path fill="url(#b)" d="M3,10.25h9.474a.75.75,0,0,0,0-1.5H3a.75.75,0,0,0,0,1.5Zm9.474,8.5H3a.75.75,0,0,0,0,1.5h9.474a.75.75,0,0,0,0-1.5Z"></path>
  </g>
</svg>
